<?xml version="1.0" encoding="UTF-8" standalone="no"?>
<!DOCTYPE svg PUBLIC "-//W3C//DTD SVG 20010904//EN" "http://www.w3.org/TR/2001/REC-SVG-20010904/DTD/svg10.dtd">
<svg version="1.0" xmlns="http://www.w3.org/2000/svg" width="640.000000pt" height="464.000000pt" viewBox="0 0 640.000000 464.000000" preserveAspectRatio="xMidYMid meet">

<g transform="translate(0.000000,464.000000) scale(0.100000,-0.100000)" fill="#434a51" stroke="none">
<path d="M2115 4498 c-314 -31 -673 -155 -937 -321 -264 -167 -499 -397 -671 -657 -421 -637 -474 -1465 -138 -2155 338 -692 1007 -1155 1771 -1224 217 -20 405 -10 628 35 121 24 301 77 388 114 l43 19 88 -35 c110 -44 314 -97 458 -121 152 -24 476 -24 635 1 712 111 1316 548 1635 1185 108 216 171 415 212 666 26 164 24 487 -5 655 -65 383 -200 694 -435 1005 -73 96 -265 290 -364 368 -303 238 -662 394 -1044 454 -158 24 -482 24 -634 0 -144 -24 -348 -77 -458 -121 l-88 -35 -43 19 c-87 37 -267 90 -388 114 -221 44 -440 56 -653 34z m483 -707 c183 -40 361 -113 519 -213 l63 -40 82 52 c148 95 331 168 523 207 135 27 443 24 578 -5 465 -102 847 -395 1052 -807 248 -499 208 -1073 -109 -1540 -79 -116 -264 -302 -381 -382 -338 -229 -727 -315 -1123 -247 -186 31 -412 120 -566 222 l-58 39 -67 -44 c-333 -219 -773 -294 -1167 -198 -579 140 -1011 586 -1135 1172 -30 141 -36 365 -15 511 64 432 299 807 657 1045 209 139 395 208 674 251 76 11 382 -3 473 -23z"/>
<path d="M1753 3111 c-242 -563 -238 -1105 11 -1480 98 -147 202 -230 360 -286 165 -59 225 -70 391 -70 139 0 157 2 239 29 152 50 290 159 384 304 l39 60 41 -63 c66 -99 179 -198 286 -250 123 -59 188 -75 338 -82 186 -9 354 24 501 98 160 81 318 300 392 542 110 366 68 811 -116 1206 l-42 91 -365 0 c-343 0 -364 -1 -357 -17 4 -10 29 -83 55 -163 87 -263 126 -515 118 -768 -6 -162 -23 -247 -66 -327 -39 -72 -79 -95 -164 -95 -117 0 -173 39 -207 145 -36 109 -44 201 -45 510 l-2 300 -356 3 -355 2 5 -209 c10 -412 -43 -665 -151 -732 -69 -41 -193 -15 -254 54 -137 156 -117 601 52 1185 l32 112 -361 0 -361 0 -42 -99z"/>
</g>
</svg>